<?xml version="1.0" encoding="UTF-8" standalone="no"?>
<svg width="128px" height="22px" viewBox="0 0 128 22" version="1.1" xmlns="http://www.w3.org/2000/svg" xmlns:xlink="http://www.w3.org/1999/xlink" xmlns:sketch="http://www.bohemiancoding.com/sketch/ns">
    <!-- Generator: Sketch 3.4.4 (17248) - http://www.bohemiancoding.com/sketch -->
    <title>example-inc</title>
    <desc>Created with Sketch.</desc>
    <defs></defs>
    <g id="Page-1" stroke="none" stroke-width="1" fill="none" fill-rule="evenodd" sketch:type="MSPage">
        <g id="example-inc" sketch:type="MSLayerGroup" fill="#000000">
            <path d="M28.0493995,16.3648654 L28.0493995,4.81061061 L34.7037651,4.81061061 L34.7037651,6.81798456 L30.4993441,6.81798456 L30.4993441,9.35486267 L34.4113523,9.35486267 L34.4113523,11.3622366 L30.4993441,11.3622366 L30.4993441,14.3416854 L34.7037651,14.3416854 L34.7037651,16.3648654 L28.0493995,16.3648654 Z M35.7390643,16.3648654 L38.7343191,11.8522255 L35.8892221,7.5292588 L38.6236764,7.5292588 L40.3386376,10.3427436 L42.0694049,7.5292588 L44.8038592,7.5292588 L41.9271501,11.8522255 L44.938211,16.3648654 L42.1958537,16.3648654 L40.3386376,13.3379984 L38.4735185,16.3648654 L35.7390643,16.3648654 Z M45.6969035,13.7252477 C45.6969035,12.7874148 46.0248767,12.095905 46.6808329,11.6506978 C47.3367891,11.2054906 48.3259772,10.9591815 49.6484271,10.9117629 L51.1816182,10.8643447 L51.1816182,10.4770954 C51.1816182,9.58141221 50.7232461,9.13357735 49.806488,9.13357735 C49.1004789,9.13357735 48.2706673,9.34695749 47.3170282,9.77372416 L46.5188204,8.14569647 C47.5356842,7.61355531 48.6631743,7.34748872 49.9013246,7.34748872 C51.0867876,7.34748872 51.9956289,7.60565234 52.6278758,8.12198733 C53.2601227,8.63832232 53.5762415,9.42335047 53.5762415,10.4770954 L53.5762415,16.3648654 L51.8928924,16.3648654 L51.4266127,15.1636023 L51.3633883,15.1636023 C50.9576965,15.6746685 50.5401564,16.0289849 50.1107553,16.2265621 C49.6813543,16.4241392 49.1215607,16.5229263 48.4313578,16.5229263 C47.5830932,16.5229263 46.9152924,16.2805687 46.4279354,15.795846 C45.9405784,15.3111234 45.6969035,14.6209308 45.6969035,13.7252477 L45.6969035,13.7252477 Z M48.1705573,13.7410538 C48.1705573,14.4207192 48.560437,14.7605469 49.3402082,14.7605469 C49.898693,14.7605469 50.3452107,14.5998532 50.6797747,14.278461 C51.0143387,13.9570688 51.1816182,13.5303085 51.1816182,12.9981674 L51.1816182,12.271087 L50.2490586,12.3026992 C49.5483183,12.3237741 49.0267224,12.4502216 48.6842553,12.6820455 C48.3417882,12.9138694 48.1705573,13.2668686 48.1705573,13.7410538 L48.1705573,13.7410538 Z M56.0577982,16.3648654 L56.0577982,7.5292588 L57.8992082,7.5292588 L58.2232331,8.65939453 L58.3575849,8.65939453 C58.5946775,8.25370275 58.9371395,7.93626687 59.384981,7.70707736 C59.8328226,7.47788785 60.3465155,7.36329481 60.9260752,7.36329481 C62.248525,7.36329481 63.1441947,7.79532373 63.6131112,8.65939453 L63.8264935,8.65939453 C64.0635861,8.24843403 64.4126338,7.92968098 64.8736472,7.70312583 C65.3346606,7.47657069 65.8549393,7.36329481 66.434499,7.36329481 C67.4355566,7.36329481 68.1929244,7.62014127 68.706625,8.1338419 C69.2203257,8.64754253 69.4771721,9.47076836 69.4771721,10.6035441 L69.4771721,16.3648654 L67.0588397,16.3648654 L67.0588397,11.2041757 C67.0588397,10.56666 66.9521497,10.0885305 66.7387663,9.76977264 C66.525383,9.45101481 66.1895068,9.29163829 65.7311278,9.29163829 C65.1410307,9.29163829 64.6997816,9.50238411 64.4073674,9.92388206 C64.1149532,10.34538 63.9687483,11.014498 63.9687483,11.931256 L63.9687483,16.3648654 L61.558319,16.3648654 L61.558319,11.2041757 C61.558319,10.56666 61.4516289,10.0885305 61.2382456,9.76977264 C61.0248622,9.45101481 60.6889861,9.29163829 60.2306071,9.29163829 C59.6141663,9.29163829 59.1663315,9.51819004 58.8870891,9.97130034 C58.6078467,10.4244106 58.4682276,11.169924 58.4682276,12.2078627 L58.4682276,16.3648654 L56.0577982,16.3648654 Z M71.9508259,20.2531646 L71.9508259,7.5292588 L73.9107815,7.5292588 L74.2506125,8.67520062 L74.3612552,8.67520062 C74.9250087,7.80059238 75.760089,7.36329481 76.8665211,7.36329481 C77.9097286,7.36329481 78.7263686,7.76634618 79.3164657,8.57246101 C79.9065628,9.37857584 80.201607,10.498163 80.201607,11.931256 C80.201607,12.8743577 80.063305,13.693632 79.786697,14.3891036 C79.510089,15.0845753 79.1162577,15.6140741 78.6051915,15.9776161 C78.0941252,16.3411581 77.4934996,16.5229263 76.8032967,16.5229263 C75.765358,16.5229263 74.9513523,16.1462182 74.3612552,15.3927906 L74.2348065,15.3927906 C74.319106,16.130412 74.3612552,16.5571723 74.3612552,16.6730842 L74.3612552,20.2531646 L71.9508259,20.2531646 Z M74.3612552,11.9154499 C74.3612552,12.8638203 74.5021915,13.5434756 74.7840682,13.9544361 C75.065945,14.3653966 75.5124627,14.5708737 76.1236347,14.5708737 C77.2037232,14.5708737 77.7437593,13.6804727 77.7437593,11.8996438 C77.7437593,11.0303043 77.6107261,10.3783094 77.3446555,9.94363967 C77.0785849,9.50896991 76.6610447,9.29163829 76.0920225,9.29163829 C75.4966567,9.29163829 75.0619934,9.47472372 74.7880197,9.84090006 C74.5140461,10.2070764 74.3717927,10.8116535 74.3612552,11.6546494 L74.3612552,11.9154499 Z M82.1931748,16.3648654 L82.1931748,4.06772419 L84.6036042,4.06772419 L84.6036042,16.3648654 L82.1931748,16.3648654 Z M86.595172,12.0102865 C86.595172,10.5297749 86.9652944,9.38516173 87.7055502,8.57641253 C88.4458059,7.76766334 89.4692403,7.36329481 90.7758839,7.36329481 C92.0245716,7.36329481 92.9966367,7.71892837 93.6921083,8.43020616 C94.3875799,9.14148395 94.7353105,10.1240863 94.7353105,11.3780427 L94.7353105,12.5476937 L89.0372136,12.5476937 C89.0635572,13.2326278 89.2664001,13.7673954 89.6457482,14.1520122 C90.0250964,14.5366291 90.5572295,14.7289347 91.2421637,14.7289347 C91.7743049,14.7289347 92.2774605,14.6736139 92.7516457,14.5629707 C93.2258309,14.4523275 93.7210836,14.2758278 94.2374185,14.0334665 L94.2374185,15.8985856 C93.8159206,16.1093346 93.3654514,16.2660768 92.8859975,16.3688169 C92.4065436,16.4715571 91.821724,16.5229263 91.1315211,16.5229263 C89.7089655,16.5229263 88.5972813,16.1304123 87.7964352,15.3453723 C86.9955891,14.5603324 86.595172,13.4486482 86.595172,12.0102865 L86.595172,12.0102865 Z M89.0925349,10.9433751 L92.4750391,10.9433751 C92.4645016,10.3480093 92.3090766,9.88831997 92.0087593,9.56429342 C91.708442,9.24026687 91.3027563,9.07825602 90.79169,9.07825602 C90.2806238,9.07825602 89.8802067,9.24026687 89.5904269,9.56429342 C89.300647,9.88831997 89.1346847,10.3480093 89.0925349,10.9433751 L89.0925349,10.9433751 Z M101.08936,16.3648654 L101.08936,4.81061061 L103.539305,4.81061061 L103.539305,16.3648654 L101.08936,16.3648654 Z M106.257953,16.3648654 L106.257953,7.5292588 L108.099363,7.5292588 L108.423388,8.65939453 L108.55774,8.65939453 C108.826445,8.23262785 109.196567,7.90992333 109.668118,7.69127126 C110.139669,7.4726192 110.675753,7.36329481 111.276388,7.36329481 C112.303789,7.36329481 113.083549,7.64121585 113.61569,8.19706628 C114.147831,8.7529167 114.413898,9.55506795 114.413898,10.6035441 L114.413898,16.3648654 L112.003468,16.3648654 L112.003468,11.2041757 C112.003468,10.56666 111.890192,10.0885305 111.663637,9.76977264 C111.437082,9.45101481 111.07618,9.29163829 110.58092,9.29163829 C109.906523,9.29163829 109.419173,9.51687288 109.118856,9.96734882 C108.818539,10.4178248 108.668382,11.1646552 108.668382,12.2078627 L108.668382,16.3648654 L106.257953,16.3648654 Z M116.358047,11.9944804 C116.358047,10.4928939 116.732121,9.34564641 117.48028,8.55270339 C118.228439,7.75976037 119.300608,7.36329481 120.69682,7.36329481 C121.718953,7.36329481 122.635697,7.56350333 123.44708,7.96392639 L122.735806,9.82904549 C122.356458,9.67625249 122.003459,9.55112216 121.676798,9.45365076 C121.350137,9.35617936 121.023481,9.30744439 120.69682,9.30744439 C119.442864,9.30744439 118.815895,10.1978455 118.815895,11.9786743 C118.815895,13.7068159 119.442864,14.5708737 120.69682,14.5708737 C121.160468,14.5708737 121.589862,14.5089671 121.985017,14.3851521 C122.380171,14.2613371 122.775319,14.0677144 123.170474,13.8042782 L123.170474,15.8669734 C122.780588,16.1146035 122.386757,16.2858345 121.988968,16.3806715 C121.59118,16.4755085 121.089341,16.5229263 120.483438,16.5229263 C117.733164,16.5229263 116.358047,15.0134595 116.358047,11.9944804 L116.358047,11.9944804 Z M124.877532,15.2347297 C124.877532,14.7921568 124.996076,14.4575978 125.233169,14.2310427 C125.470262,14.0044876 125.815358,13.8912117 126.268468,13.8912117 C126.705772,13.8912117 127.044283,14.0071219 127.28401,14.2389457 C127.523737,14.4707696 127.643598,14.8026943 127.643598,15.2347297 C127.643598,15.6509589 127.52242,15.9789321 127.280058,16.218659 C127.037697,16.458386 126.700504,16.5782477 126.268468,16.5782477 C125.825895,16.5782477 125.483433,16.4610203 125.241072,16.2265621 C124.998711,15.9921038 124.877532,15.6614964 124.877532,15.2347297 L124.877532,15.2347297 Z" id="Example-Inc." sketch:type="MSShapeGroup"></path>
            <path d="M3.93555484,19.0198844 C3.81373695,18.9201996 3.69415371,18.817886 3.57689173,18.7130303 L6.6951624,15.5947775 C6.7787616,15.5111783 6.7787616,15.3756402 6.6951624,15.292041 L6.54450215,15.1413808 C6.46090294,15.0577816 6.32536483,15.0577816 6.24176562,15.1413808 L3.11167895,18.2714494 C2.98817085,18.1470284 2.86769389,18.0195944 2.75036806,17.8892673 L4.76850664,15.8711171 C4.85207913,15.7875179 4.85207913,15.6519798 4.76850664,15.5683806 L4.61781968,15.4177204 C4.53422047,15.3341212 4.39870907,15.3341212 4.31510987,15.4177204 L2.33436863,17.398473 C0.87329394,15.5665094 0,13.2450639 0,10.7196496 C0,4.79935062 4.79935062,0 10.7196496,0 C16.6399486,0 21.4392993,4.79935062 21.4392993,10.7196496 C21.4392993,16.6399486 16.6399486,21.4392993 10.7196496,21.4392993 C8.37783806,21.4392993 6.21141545,20.6883699 4.44804042,19.4141698 L6.49480751,17.3674066 C6.57838,17.2838341 6.57838,17.148296 6.49480751,17.0646968 L6.34412055,16.9140366 C6.26052134,16.8304374 6.12500994,16.8304374 6.04141074,16.9140366 L3.93555484,19.0198844 Z M8.41964647,9.55570351 L6.46963958,10.0981232 C6.44628845,10.1044285 6.42568922,10.1181079 6.41011289,10.1366231 L5.02315158,11.804466 C5.00525083,11.8261339 4.99579282,11.8528515 4.99579282,11.8802103 C4.99579282,11.8919927 4.99747602,11.9033477 5.00105617,11.9149164 C5.01283861,11.9532293 5.04292257,11.9828858 5.08120881,11.994027 L7.05015844,12.5669581 C7.03332639,12.984393 7.12884162,13.3528013 7.33713162,13.655992 L6.71351735,14.4151177 C6.6741624,14.4632894 6.67817004,14.5333696 6.72340284,14.5764917 L7.31650567,15.1401518 C7.33945604,15.1620334 7.37036825,15.1736021 7.40234915,15.1725601 C7.43411631,15.1715182 7.46422699,15.157625 7.48568118,15.1340602 L8.17494046,14.3824956 C8.34999383,14.4466711 8.78615778,14.5617703 9.44976822,14.4397245 L10.1550313,16.3712162 C10.1687107,16.4088612 10.2004779,16.4368612 10.2394053,16.4458917 C10.2783328,16.4551627 10.3191305,16.4438078 10.3481725,16.4162352 L11.9194581,14.9207205 C11.9377596,14.9032473 11.9499696,14.8807244 11.9545917,14.85569 L12.3068091,12.8857251 C12.7353853,12.5149925 13.1690111,12.0836644 13.5965453,11.6033096 C16.0578191,8.83740226 16.4251854,6.67531148 16.4251854,5.63279279 C16.4251854,5.2896059 16.3835327,5.10047238 16.3818495,5.09248384 C16.3713228,5.04554111 16.3334373,5.00979303 16.2860939,5.00159074 C16.1636473,4.98053732 13.245824,4.53069398 9.44869951,8.32779176 C9.44386364,8.33284138 8.95049741,8.84181065 8.41964647,9.55570351 Z" id="Oval-1" sketch:type="MSShapeGroup"></path>
            <path d="M10.5421686,9.73516527 C10.5421686,9.07452049 11.0776416,8.53904741 11.7382864,8.53904741 C12.3989579,8.53904741 12.934431,9.07452049 12.934431,9.73516527 C12.934431,10.3958368 12.3989579,10.9313099 11.7382864,10.9313099 C11.0776416,10.9313099 10.5421686,10.3958368 10.5421686,9.73516527 L10.5421686,9.73516527 Z" id="Fill-34" sketch:type="MSShapeGroup"></path>
        </g>
    </g>
</svg>