<?xml version="1.0" encoding="UTF-8" standalone="no"?>
<svg width="424px" height="105px" viewBox="0 0 424 105" version="1.1" xmlns="http://www.w3.org/2000/svg" xmlns:xlink="http://www.w3.org/1999/xlink" xmlns:sketch="http://www.bohemiancoding.com/sketch/ns">
    <!-- Generator: Sketch 3.3.2 (12043) - http://www.bohemiancoding.com/sketch -->
    <title>logo-black</title>
    <desc>Created with Sketch.</desc>
    <defs></defs>
    <g id="Page-1" stroke="none" stroke-width="1" fill="none" fill-rule="evenodd" sketch:type="MSPage">
        <g id="logo-black" sketch:type="MSArtboardGroup" fill="#2A2C2E">
            <g id="Icon" sketch:type="MSLayerGroup">
                <path d="M44.8082568,1.36638631 C37.6439218,2.47489267 30.7400776,4.88352795 24.5890613,8.70262532 C-22.4586222,37.9136292 6.59945343,111.895705 60.8151198,104.239149 C68.2414618,103.190065 75.5186872,100.734693 81.8767817,96.7870683 C129.361562,67.3042375 99.3141528,-7.06709207 44.8082568,1.36638631 Z M25.4315278,18.3268175 C-10.9333691,45.1664089 18.3141183,104.389376 61.6575863,95.5877582 C68.9457638,94.1080249 76.0199548,91.1168438 81.8759392,86.5307555 C116.893058,59.1077001 87.7445607,1.05608465 44.8082568,9.77549457 C37.9098043,11.1763588 31.0716724,14.1640347 25.4315278,18.3268175 Z" id="Shape" sketch:type="MSShapeGroup"></path>
                <path d="M85.8167598,61.7672486 L79.7150623,59.0807276 C79.221562,58.863444 78.2345615,58.4288768 78.2345615,58.4288768 C62.7650166,88.2659778 28.5290394,61.7672486 28.5290394,61.7672486 C36.3381944,86.1678485 78.184856,87.461862 85.8167598,61.7672486 Z" id="Shape" sketch:type="MSShapeGroup" transform="translate(57.172900, 69.492481) rotate(-14.000000) translate(-57.172900, -69.492481) "></path>
            </g>
            <g id="Logotype" sketch:type="MSLayerGroup" transform="translate(149.000000, 20.000000)">
                <g id="Sorry" sketch:type="MSShapeGroup">
                    <path d="M73.2668457,66.0336914 C86.9451969,66.0336914 98.0336914,54.9451969 98.0336914,41.2668457 C98.0336914,27.5884945 86.9451969,16.5 73.2668457,16.5 C59.5884945,16.5 48.5,27.5884945 48.5,41.2668457 C48.5,54.9451969 59.5884945,66.0336914 73.2668457,66.0336914 L73.2668457,66.0336914 Z M73.2668457,57.0336914 C64.5590573,57.0336914 57.5,49.9746341 57.5,41.2668457 C57.5,32.5590573 64.5590573,25.5 73.2668457,25.5 C81.9746341,25.5 89.0336914,32.5590573 89.0336914,41.2668457 C89.0336914,49.9746341 81.9746341,57.0336914 73.2668457,57.0336914 L73.2668457,57.0336914 Z" id="Shape"></path>
                    <path d="M0.345703125,62.5229492 L0.345703125,52.7016602 C3.24285303,54.0633206 6.32102863,55.13525 9.58032227,55.9174805 C12.8396159,56.6997109 15.8743349,57.0908203 18.6845703,57.0908203 C22.7985232,57.0908203 25.8332422,56.3086016 27.7888184,54.7441406 C29.7443945,53.1796797 30.722168,51.0792775 30.722168,48.4428711 C30.722168,46.0672082 29.824065,44.0537192 28.027832,42.4023438 C26.2315991,40.7509683 22.5233028,38.7954215 16.902832,36.5356445 C11.1085322,34.1889531 7.02361214,31.5091296 4.64794922,28.4960938 C2.2722863,25.4830579 1.08447266,21.8616748 1.08447266,17.6318359 C1.08447266,12.3300516 2.96759185,8.15821833 6.73388672,5.11621094 C10.5001816,2.07420354 15.5556323,0.553222656 21.9003906,0.553222656 C27.9844054,0.553222656 34.0393579,1.88589162 40.0654297,4.55126953 L36.7626953,13.0253906 C31.113253,10.6497277 26.0722878,9.46191406 21.6396484,9.46191406 C18.2789546,9.46191406 15.7295009,10.1934334 13.9912109,11.6564941 C12.252921,13.1195548 11.3837891,15.0533734 11.3837891,17.4580078 C11.3837891,19.1093833 11.7314418,20.5217226 12.4267578,21.6950684 C13.1220738,22.8684141 14.2664308,23.9765573 15.8598633,25.0195312 C17.4532957,26.0625052 20.3214311,27.4386308 24.4643555,29.1479492 C29.1287668,31.0890397 32.5473524,32.8997312 34.7202148,34.5800781 C36.8930773,36.2604251 38.4864858,38.1580298 39.5004883,40.2729492 C40.5144907,42.3878686 41.0214844,44.8793802 41.0214844,47.7475586 C41.0214844,53.3970009 38.9790243,57.8295738 34.894043,61.0454102 C30.8090616,64.2612465 25.1741896,65.8691406 17.9892578,65.8691406 C10.8043261,65.8691406 4.92319997,64.7537546 0.345703125,62.5229492 L0.345703125,62.5229492 Z M106.59082,65 L106.59082,16.9365234 L114.586914,16.9365234 L115.934082,25.4106445 L116.455566,25.4106445 C118.048999,22.5424661 120.127673,20.2682376 122.69165,18.5878906 C125.255628,16.9075437 128.015122,16.0673828 130.970215,16.0673828 C133.027191,16.0673828 134.721999,16.2122381 136.054688,16.5019531 L135.055176,26.019043 C133.606601,25.671385 132.100105,25.4975586 130.535645,25.4975586 C126.450663,25.4975586 123.140719,26.8302276 120.605713,29.4956055 C118.070707,32.1609834 116.803223,35.6230256 116.803223,39.8818359 L116.803223,65 L106.59082,65 Z M144.963379,65 L144.963379,16.9365234 L152.959473,16.9365234 L154.306641,25.4106445 L154.828125,25.4106445 C156.421557,22.5424661 158.500231,20.2682376 161.064209,18.5878906 C163.628187,16.9075437 166.387681,16.0673828 169.342773,16.0673828 C171.39975,16.0673828 173.094557,16.2122381 174.427246,16.5019531 L173.427734,26.019043 C171.979159,25.671385 170.472664,25.4975586 168.908203,25.4975586 C164.823222,25.4975586 161.513278,26.8302276 158.978271,29.4956055 C156.443265,32.1609834 155.175781,35.6230256 155.175781,39.8818359 L155.175781,65 L144.963379,65 Z M180.035156,16.9365234 L191.160156,16.9365234 L200.937988,44.184082 C202.415535,48.0662629 203.400551,51.716617 203.893066,55.1352539 L204.240723,55.1352539 C204.501466,53.5418215 204.979489,51.6080029 205.674805,49.3337402 C206.370121,47.0594776 210.049446,36.2605133 216.712891,16.9365234 L227.750977,16.9365234 L207.195801,71.3881836 C203.458477,81.3833508 197.229699,86.3808594 188.509277,86.3808594 C186.2495,86.3808594 184.0477,86.1346053 181.903809,85.6420898 L181.903809,77.559082 C183.439298,77.90674 185.192047,78.0805664 187.162109,78.0805664 C192.087264,78.0805664 195.549306,75.2269166 197.54834,69.5195312 L199.330078,65 L180.035156,16.9365234 Z" id="S---rry."></path>
                </g>
                <path d="M241.339844,19.2695312 L241.339844,16.8671875 L254.21875,16.8671875 L254.21875,19.2695312 L249.179688,19.2695312 L249.179688,34 L246.378906,34 L246.378906,19.2695312 L241.339844,19.2695312 Z M256.84375,34 L256.84375,16.8671875 L260.792969,16.8671875 L265.550781,30.4960938 L265.621094,30.4960938 L270.519531,16.8671875 L274.480469,16.8671875 L274.480469,34 L271.785156,34 L271.785156,25.5273438 C271.785156,24.675777 271.80664,23.5664131 271.849609,22.1992188 C271.892578,20.8320244 271.929687,20.0039077 271.960938,19.7148438 L271.867188,19.7148438 L266.722656,34 L264.25,34 L259.28125,19.6914062 L259.1875,19.6914062 C259.320313,21.8164169 259.386719,23.8085845 259.386719,25.6679688 L259.386719,34 L256.84375,34 Z" id="TM" sketch:type="MSShapeGroup"></path>
            </g>
        </g>
    </g>
</svg>