<?xml version="1.0" encoding="UTF-8" standalone="no"?>
<svg width="128px" height="128px" viewBox="0 0 128 128" version="1.1" xmlns="http://www.w3.org/2000/svg" xmlns:xlink="http://www.w3.org/1999/xlink" xmlns:sketch="http://www.bohemiancoding.com/sketch/ns">
    <!-- Generator: Sketch 3.3.3 (12072) - http://www.bohemiancoding.com/sketch -->
    <title>timeline</title>
    <desc>Created with Sketch.</desc>
    <defs></defs>
    <g id="Page-1" stroke="none" stroke-width="1" fill="none" fill-rule="evenodd" sketch:type="MSPage">
        <g id="timeline" sketch:type="MSArtboardGroup" fill="#277FBE">
            <path d="M51.1638291,67.274103 C37.8323526,65.5963773 27.1637049,53.6368928 27.1637049,40.1366206 L27.1637049,38.5111679 C27.1637049,24.7149884 38.2843607,12.207427 52.0023848,10.5951142 L66.6888112,8.86898265 C80.4079982,7.25653315 91.5274912,17.1435822 91.5274912,30.9520195 L91.5274912,45.9158083 C91.5274912,59.5832699 80.6134791,69.697365 67.060783,68.7153448 L67.0607829,81.7950078 L51.1638291,67.274103 L51.1638291,67.274103 Z M64.8405994,48.4488566 L58.5930482,48.4488566 C58.1697951,48.4488566 57.8037546,48.6026904 57.4946271,48.9094654 C57.1854996,49.216538 57.0309358,49.5801452 57.0309358,50.0002871 L57.0309358,55.4305915 C57.0309358,55.8507334 57.1854996,56.2146382 57.4946271,56.5220083 C57.8040542,56.8284857 58.1697951,56.9823196 58.5930482,56.9823196 L64.8411985,56.9823196 C65.2638525,56.9823196 65.629893,56.8284857 65.9393201,56.5220083 C66.2481481,56.2146382 66.4027118,55.8507334 66.4027118,55.4305915 L66.4027118,50.0002871 C66.4027118,49.5801452 66.2478485,49.216538 65.938721,48.9094654 C65.6295935,48.6023929 65.2635529,48.4488566 64.8405994,48.4488566 Z M66.7076458,23.3090766 C66.4066059,23.0023016 66.0447589,22.8484677 65.6215058,22.8484677 L57.8121418,22.8484677 C57.3891882,22.8484677 57.0273413,23.0023016 56.7263014,23.3090766 C56.4252615,23.6161491 56.282979,23.9800539 56.2991543,24.4001958 L56.98241,43.0182547 C56.9985852,43.4383966 57.1651307,43.8023014 57.4826454,44.1090764 C57.7998606,44.4161489 58.1697951,44.5699828 58.5930482,44.5699828 L64.8411985,44.5699828 C65.2638525,44.5699828 65.6337871,44.4161489 65.9516013,44.1090764 C66.2688165,43.8023014 66.4350624,43.4383966 66.4518367,43.0182547 L67.1347929,24.4001958 C67.1515673,23.9800539 67.0086857,23.6164467 66.7076458,23.3090766 Z" id="Bubble" sketch:type="MSShapeGroup"></path>
            <path d="M7.00729927,113.330931 C10.8773238,113.330931 14.0145985,110.200958 14.0145985,106.33994 C14.0145985,102.478922 10.8773238,99.3489489 7.00729927,99.3489489 C3.13727475,99.3489489 0,102.478922 0,106.33994 C0,110.200958 3.13727475,113.330931 7.00729927,113.330931 L7.00729927,113.330931 Z M7.00729927,111.466667 C4.16928129,111.466667 1.86861314,109.171353 1.86861314,106.33994 C1.86861314,103.508527 4.16928129,101.213213 7.00729927,101.213213 C9.84531725,101.213213 12.1459854,103.508527 12.1459854,106.33994 C12.1459854,109.171353 9.84531725,111.466667 7.00729927,111.466667 Z M32.2335766,113.330931 C36.1036012,113.330931 39.2408759,110.200958 39.2408759,106.33994 C39.2408759,102.478922 36.1036012,99.3489489 32.2335766,99.3489489 C28.3635521,99.3489489 25.2262774,102.478922 25.2262774,106.33994 C25.2262774,110.200958 28.3635521,113.330931 32.2335766,113.330931 Z M32.2335766,111.466667 C29.3955587,111.466667 27.0948905,109.171353 27.0948905,106.33994 C27.0948905,103.508527 29.3955587,101.213213 32.2335766,101.213213 C35.0715946,101.213213 37.3722628,103.508527 37.3722628,106.33994 C37.3722628,109.171353 35.0715946,111.466667 32.2335766,111.466667 Z M93.8978102,113.330931 C97.7678347,113.330931 100.905109,110.200958 100.905109,106.33994 C100.905109,102.478922 97.7678347,99.3489489 93.8978102,99.3489489 C90.0277857,99.3489489 86.8905109,102.478922 86.8905109,106.33994 C86.8905109,110.200958 90.0277857,113.330931 93.8978102,113.330931 Z M93.8978102,111.466667 C91.0597922,111.466667 88.7591241,109.171353 88.7591241,106.33994 C88.7591241,103.508527 91.0597922,101.213213 93.8978102,101.213213 C96.7358282,101.213213 99.0364964,103.508527 99.0364964,106.33994 C99.0364964,109.171353 96.7358282,111.466667 93.8978102,111.466667 Z M63.0656934,119.38979 C70.2897392,119.38979 76.1459854,113.547173 76.1459854,106.33994 C76.1459854,99.1327069 70.2897392,93.2900901 63.0656934,93.2900901 C55.8416477,93.2900901 49.9854015,99.1327069 49.9854015,106.33994 C49.9854015,113.547173 55.8416477,119.38979 63.0656934,119.38979 Z M63.0656934,116.593393 C57.3896575,116.593393 52.7883212,112.002766 52.7883212,106.33994 C52.7883212,100.677114 57.3896575,96.0864865 63.0656934,96.0864865 C68.7417294,96.0864865 73.3430657,100.677114 73.3430657,106.33994 C73.3430657,112.002766 68.7417294,116.593393 63.0656934,116.593393 Z M120.992701,113.330931 C124.862725,113.330931 128,110.200958 128,106.33994 C128,102.478922 124.862725,99.3489489 120.992701,99.3489489 C117.122676,99.3489489 113.985401,102.478922 113.985401,106.33994 C113.985401,110.200958 117.122676,113.330931 120.992701,113.330931 Z M120.992701,111.466667 C118.154683,111.466667 115.854015,109.171353 115.854015,106.33994 C115.854015,103.508527 118.154683,101.213213 120.992701,101.213213 C123.830719,101.213213 126.131387,103.508527 126.131387,106.33994 C126.131387,109.171353 123.830719,111.466667 120.992701,111.466667 Z M13.5474453,107.738138 L25.6934307,107.738138 L27.0948905,107.738138 L27.0948905,104.941742 L25.6934307,104.941742 L13.5474453,104.941742 L12.1459854,104.941742 L12.1459854,107.738138 L13.5474453,107.738138 Z M38.7737226,107.738138 L51.3868613,107.738138 L52.7883212,107.738138 L52.7883212,104.941742 L51.3868613,104.941742 L38.7737226,104.941742 L37.3722628,104.941742 L37.3722628,107.738138 L38.7737226,107.738138 Z M75.2116788,107.738138 L86.8905109,107.738138 L88.2919708,107.738138 L88.2919708,104.941742 L86.8905109,104.941742 L75.2116788,104.941742 L73.810219,104.941742 L73.810219,107.738138 L75.2116788,107.738138 Z M101.372263,107.738138 L113.985401,107.738138 L115.386861,107.738138 L115.386861,104.941742 L113.985401,104.941742 L101.372263,104.941742 L99.9708029,104.941742 L99.9708029,107.738138 L101.372263,107.738138 Z" id="Timeline" sketch:type="MSShapeGroup"></path>
        </g>
    </g>
</svg>